<svg xmlns="http://www.w3.org/2000/svg" viewBox="0 0 120 120" fill="none">
  <!-- Tło koło -->
  <circle cx="60" cy="60" r="55" fill="#EDE9FE" stroke="#8B5CF6" stroke-width="2"/>
  <!-- Mózg - uproszczony kształt -->
  <path d="M35 55 Q30 40 45 35 Q55 25 70 35 Q90 40 85 60 Q90 80 70 85 Q55 95 45 85 Q25 80 35 55" fill="#DDD6FE" stroke="#8B5CF6" stroke-width="2"/>
  <!-- Fałdy mózgu -->
  <path d="M45 45 Q55 50 65 45" stroke="#8B5CF6" stroke-width="2" fill="none"/>
  <path d="M40 60 Q50 65 60 60 Q70 55 80 60" stroke="#8B5CF6" stroke-width="2" fill="none"/>
  <path d="M45 75 Q55 70 65 75" stroke="#8B5CF6" stroke-width="2" fill="none"/>
  <!-- Znaki zapytania (problemy z pamięcią) -->
  <text x="18" y="30" font-family="Arial" font-size="18" fill="#F59E0B" font-weight="bold">?</text>
  <text x="95" y="45" font-family="Arial" font-size="14" fill="#F59E0B" font-weight="bold">?</text>
  <text x="10" y="85" font-family="Arial" font-size="12" fill="#F59E0B" font-weight="bold">?</text>
  <!-- Mgła/chaos -->
  <circle cx="25" cy="50" r="3" fill="#C4B5FD" opacity="0.6"/>
  <circle cx="95" cy="70" r="4" fill="#C4B5FD" opacity="0.6"/>
  <circle cx="20" cy="70" r="2" fill="#C4B5FD" opacity="0.6"/>
</svg>